<svg width="719" height="719" viewBox="0 0 719 719" fill="none" xmlns="http://www.w3.org/2000/svg">
<circle cx="359.5" cy="359.5" r="359.5" fill="#F3FE52"/>
<path d="M142.624 484.104C108.288 451.575 116.27 365.132 124.553 325.977L192.321 310.164L370.78 307.905L598.936 382.451C601.948 400.523 605.261 443.895 594.418 472.81C580.864 508.953 531.167 542.838 490.505 558.65C449.844 574.463 325.601 556.391 291.716 558.65C257.831 560.909 185.545 524.766 142.624 484.104Z" fill="white"/>
<path d="M260.064 147.327C254.649 146.063 243.929 148.885 238.804 151.018C208.32 173.67 187.448 186.097 155.503 228.071C136.149 253.5 119.52 286.882 113.901 315.235C112.779 320.879 115.456 328.093 114.721 332.797C113.443 340.879 111.356 350.772 111.127 358.86C110.44 383.452 112.369 434.746 121.22 456.8C137.693 497.823 177.968 521.193 215.495 538.377C290.379 572.684 433.684 584.404 510.051 555.898L511.124 555.452C555.922 536.64 578.87 514.091 597.741 468.991C612.658 438.015 604.711 411.573 604.301 380.8C603.916 351.981 604.301 339.326 598.079 305.567C591.857 271.807 567.146 209.023 511.124 147.327C481.267 132.832 398.485 158.43 370.702 170.198C354.929 176.675 346.91 177.678 329.955 186.097C318.379 191.844 299.833 205.581 292.115 209.023C286.424 203.733 286.134 181.243 283.433 173.67C280.491 165.418 279.128 165.409 277.163 156.16C271.013 150.989 268.107 147.456 260.064 147.327ZM217.152 369.357C221.126 368.696 227.529 367.921 236.344 363.173C258.858 351.041 272.604 340.078 288.968 320.742C295.673 329.989 300.966 349.936 306.079 361.915C314.641 370.416 316.787 372.632 326.073 380.266L333.971 383.915C350.202 391.95 364.877 399.519 383.532 398.893L384.352 398.808C387.21 398.127 388.428 397.508 391.057 396.343C402.512 390.036 419.213 379.029 420.19 364.556C430.886 352.897 452.278 373.014 460.164 380.231C501.61 411.135 533.481 433.764 586.587 411.428C590.542 406.283 594.377 401.034 598.055 395.687C606.713 521.133 511.607 565.822 402.223 561.819C335.599 559.371 270.627 557.405 209.731 525.498C218.365 525.04 222.368 525.799 228.856 520.385L228.325 518.637C223.441 516.623 213.819 516.225 208.32 515.972C204.835 515.815 204.449 517.539 201.953 520.433C185.119 521.627 144.108 480.748 136.149 466.688C120.28 438.632 115.131 371.881 121.775 341.395C137.246 358.824 166.464 370.025 189.545 369.357C200.12 369.052 213.177 370.018 217.152 369.357ZM396.495 406.847C388.826 409.801 386.016 411.352 378.889 415.544L372.764 418.144C352.794 428.972 346.645 437.593 352.143 460.791C354.181 469.353 355.23 474.683 361.368 481.858C369.689 491.71 380.083 491.493 391.695 494.881C413.968 501.381 435.577 509.677 459.369 508.314C475.141 507.736 489.817 496.798 499.886 485.524C502.9 482.159 504.83 458.874 503.298 453.592C501.646 447.925 497.8 445.525 494.7 440.919C483.052 423.6 461.165 412.135 441.124 407.975C432.924 406.283 423.386 407.11 415.005 406.829C407.709 406.585 403.935 405.273 396.495 406.847ZM180.778 451.494C144.168 431.485 163.498 395.532 196.816 388.997C205.727 387.249 212.926 387.632 221.946 387.927C214.337 415.364 208.887 437.767 214.18 465.699C199.24 461.636 193.994 459.525 180.778 451.494Z" fill="black"/>
<path d="M459.502 520.94C455.74 523.099 456.415 522.014 454.631 525.366L456.03 527.898C464.784 532.529 478.832 532.698 488.937 533.313C491.675 532.046 491.265 532.022 493.52 529.792L493.411 527.199C490.011 523.895 466.979 522.351 459.502 520.94Z" fill="black"/>
<path d="M195.285 493.676L192.741 494.279C190.269 497.414 190.799 495.678 191.053 499.621C195.056 504.083 215.109 505.337 223.382 507.073C225.239 506.458 226.083 505.831 227.807 504.879L228.482 502.298C224.31 496.317 202.231 494.376 195.285 493.676Z" fill="black"/>
<path d="M317.429 522.05C314.04 522.013 315.584 521.531 312.75 523.846L312.569 526.752C316.995 532.709 337.314 536.701 344.911 538.666C347.853 538.823 346.707 538.98 349.505 537.557L350.204 534.952C347.395 530.141 324.556 524.329 317.429 522.05Z" fill="black"/>
<path d="M454.539 536.422C452.972 536.953 451.211 538.352 449.752 539.34C448.787 547.154 463.692 547.372 469.492 548.023C473.194 547.191 474.508 547.058 476.124 543.718C472.253 538.725 461.268 537.713 454.539 536.422Z" fill="black"/>
<path d="M372.76 418.145C352.79 428.973 346.641 437.594 352.139 460.792C354.177 469.354 355.226 474.684 361.364 481.859C369.685 491.711 380.079 491.494 391.692 494.882C413.964 501.382 435.573 509.678 459.365 508.315C475.137 507.737 489.813 496.799 499.882 485.525C502.896 482.16 504.826 458.875 503.294 453.593C501.642 447.926 497.796 445.526 494.697 440.92C483.048 423.601 461.162 412.136 441.12 407.976C432.92 406.284 423.382 407.111 415.001 406.83C407.706 406.586 403.931 405.274 396.491 406.848C388.822 409.802 386.012 411.353 378.885 415.545L372.76 418.145Z" fill="black"/>
<path d="M402.882 416.341C397.19 413.812 384.794 421.193 379.09 423.844C360.52 432.472 352.44 451.18 363.715 469.666C370.818 481.327 381.731 483.449 394.32 486.138C402.592 487.971 409.755 491.022 417.605 494.109C417.412 461.707 420.946 448.756 428.542 416.901C419.993 416.965 411.431 416.778 402.882 416.341Z" fill="white"/>
<path d="M243.498 381.422C241.894 380.859 228.569 378.368 225.965 377.835C224.788 377.591 221.527 377.361 218.36 377.449C215.193 377.536 207.057 378.277 200.919 379.262C171.604 383.955 144.496 402.913 155.506 436.314C160.462 451.353 176.404 461.205 190.826 467.656C217.56 479.618 279.601 483.007 296.278 452.583C300.053 445.685 301.03 430.195 300.547 422.161C299.739 417.596 299.51 416.299 297.919 411.994C281.543 394.132 265.855 389.222 243.498 381.422ZM214.183 465.702C199.243 461.639 193.997 459.528 180.781 451.497C144.171 431.488 163.501 395.536 196.819 389C205.73 387.253 212.929 387.635 221.949 387.93C214.34 415.367 208.89 437.77 214.183 465.702Z" fill="black"/>
<path d="M221.945 387.927C212.925 387.631 205.726 387.249 196.815 388.996C163.497 395.532 144.167 431.485 180.777 451.494C193.993 459.525 199.238 461.635 214.179 465.699C208.885 437.766 214.336 415.364 221.945 387.927Z" fill="white"/>
</svg>
