<svg width="445" height="567" viewBox="0 0 445 567" fill="none" xmlns="http://www.w3.org/2000/svg">
<path d="M45.9807 282.812C21.5107 257.654 30.1717 205.205 27.8587 171.982C27.6317 168.729 34.1967 156.51 35.1097 152.318C46.8557 98.3848 84.9697 57.0428 126.019 22.5488C140.638 13.8888 166.379 -4.24717 183.582 4.57983C196.225 11.0668 211.817 52.4218 221.405 56.9008C226.856 54.4218 240.961 44.1978 246.994 40.2808C260.426 31.5738 274.428 23.7768 288.904 16.9438C363.754 -18.3022 389.534 1.85879 420.354 73.5138C431.894 98.8618 437.894 122.721 441.614 150.105C454.604 245.666 426.714 264.988 346.514 298.892C363.764 316.472 385.384 336.052 389.894 361.532L390.764 361.392C399.354 360.032 434.634 355.302 440.674 359.652L440.344 361.322C438.394 362.922 435.464 364.862 432.904 364.872C410.784 364.972 389.114 368.222 367.074 369.632C361.344 370.002 354.344 370.012 348.904 371.362C348.944 371.352 346 370.644 345.5 370.644C344.69 373.434 342.824 380.582 342.774 383.342C344.474 384.402 346.274 385.972 347.104 387.852C352.834 400.802 321.244 459.532 315.114 474.432C306.014 496.572 298.084 519.192 288.804 541.272C287.304 544.822 280.964 561.582 277.954 562.692C272.936 564.542 266.861 563.512 261.533 564.052C242.832 565.942 225.127 567.672 206.321 565.922C192.927 564.682 179.225 561.692 165.81 561.442C137.946 560.932 43.7257 569.532 24.8587 559.872C21.9217 558.362 21.2937 557.522 20.2507 554.472C21.1537 545.942 39.5777 522.332 44.0797 513.412C50.4167 500.862 62.8477 481.682 67.9667 469.162C75.7157 450.222 79.0637 438.732 88.8997 420.462C72.0757 420.672 60.8037 420.642 44.6027 416.132C4.61372 405.482 -7.00731 362.492 3.85869 326.372C8.7317 310.172 31.1957 290.169 45.9807 282.812Z" fill="black"></path>
<path d="M173.706 374.631C198.038 376.161 205.315 373.032 227.913 371.722C257.012 370.282 286.144 369.522 315.274 369.432C322.364 369.432 339.844 368.992 345.934 370.812L345.164 372.952C344.354 375.742 342.824 380.582 342.774 383.342C337.944 384.412 323.224 384.171 317.624 384.261L272.51 385.271C233.74 386.361 208.213 391.551 167.799 388.251C170.253 383.791 171.844 379.351 173.706 374.631Z" fill="white"></path>
<path d="M294.914 392.492C304.944 391.122 330.214 391.722 341.314 391.732C338.894 401.022 335.634 413.962 331.964 422.562C324.964 438.972 315.384 455.372 308.914 472.032C297.874 500.422 287.234 528.031 274.827 555.891C257.364 555.492 239.201 559.652 218.623 559.042C198.52 558.452 172.34 553.372 154.469 554.202C121.85 555.732 90.1607 559.122 57.0967 557.222C45.9437 556.582 37.4547 557.162 26.2217 554.552C30.3697 543.192 42.1787 528.992 48.2887 518.261C61.0867 495.771 73.8007 474.452 81.9407 449.722C84.2517 442.702 88.6507 434.002 92.0367 427.332C92.6177 426.542 94.4996 421.932 95.0096 420.742C121.775 415.502 132.054 416.382 154.524 401.782C160.75 420.222 166.057 429.602 157.454 447.242C147.488 443.382 137.647 438.232 127.531 434.042C125.032 428.512 123.302 421.762 117.367 419.772L116.189 421.412C114.843 441.022 138.228 447.772 153.125 454.212C149.561 461.102 128.938 504.842 127.062 506.222C122.386 506.512 120.696 505.672 118.96 510.112C122.777 515.452 132.461 515.181 137.4 511.511C138.377 508.231 138.21 509.471 136.709 505.631C140.156 489.491 154.534 468.352 162.47 454.141C170.011 440.632 172.745 454.992 178.884 445.702C178.504 442.442 179.202 443.822 176.415 441.592C173.837 441.412 172.999 441.532 170.685 440.282C168.431 434.992 170.62 430.142 169.848 424.842C168.577 416.132 158.785 401.672 163.783 393.542C201.079 400.682 239.529 392.951 277.184 392.871C283.084 392.861 289.024 392.882 294.914 392.492Z" fill="white"></path>
<path d="M196.374 454.242C197.677 454.142 198.983 454.061 200.29 454.011C215.738 453.461 225.91 462.811 236.461 472.671C264.629 446.151 266.491 495.961 251.27 501.941C241.657 502.351 241.282 493.091 231.774 497.531C213.064 509.461 207.155 511.251 185.944 502.731C145.374 486.421 166.14 463.172 196.374 454.242Z" fill="black"></path>
<path d="M194.694 462.172C214.617 459.632 224.307 469.942 234.404 485.072C238.352 481.212 246.235 471.942 251.787 473.662C253.069 476.882 251.273 489.192 249.35 492.212C244.221 492.352 241.679 486.932 232.816 487.242C223.971 492.612 216.059 499.162 205.346 499.372C193.513 499.592 176.42 490.282 168.103 482.282C175.799 472.002 182.941 466.942 194.694 462.172Z" fill="#F3FE51"></path>
<path d="M248.646 512.242C252.406 513.302 250.988 512.292 253.335 514.902C253.378 519.402 247.482 526.712 244.763 530.542C244.398 530.942 242.687 531.972 242.199 531.952C210.714 530.262 179.323 531.022 147.816 531.082C139.657 531.102 126.846 533.352 119.77 532.792C120.177 525.872 124.405 518.312 131.568 516.772L132.893 517.702L132.763 522.672C135.139 524.562 150.039 522.892 154.582 522.882C183.43 523.052 212.28 522.932 241.125 522.502C244.031 517.512 244.761 516.512 248.646 512.242Z" fill="black"></path>
<path d="M431.914 147.768C435.894 152.987 436.164 192.326 436.094 199.839C435.584 252.5 390.794 272.384 348.394 288.889C332.794 294.962 314.764 304.412 298.094 309.472C259.914 321.052 212.629 325.032 172.698 322.832C166.658 308.772 158.511 299.712 146.629 290.544C150.735 289.881 152.707 289.583 156.621 288.254C158.879 285.622 158.98 286.343 159.266 283.514C152.057 277.418 137.247 287.578 133.409 280.89C139.83 277.089 155.02 278.424 158.592 271.666L157.702 269.918C152.637 266.549 139.835 270.336 133.134 271.653L128.754 258.217C145.489 255.696 154.572 251.258 174.07 249.385C189.354 247.635 197.441 230.061 190.915 218.225C177.951 194.714 132.48 207.367 111.383 209.1C113.12 208.958 97.1338 198.673 93.8098 197.507C98.1578 192.982 103.571 188.442 107.614 183.753C113.359 177.091 117.806 170.382 123.981 163.949C129.442 165.927 132.92 175.714 136.531 177.041C161.641 186.27 187.139 192.655 211.764 178.483C210.727 179.08 234.043 174.182 235.826 173.807C245.559 171.757 258.041 151.784 261.14 151.179C267.558 154.565 271.353 161.277 276.744 164.705C315.714 189.464 404.204 188.169 431.914 147.768Z" fill="white"></path>
<path d="M312.844 190.289C330.874 189.987 383.744 184.306 370.874 217.556C361.014 243.012 326.064 240.325 302.274 242.048C286.084 245.424 224.105 242.129 248.218 210.472C261.428 193.128 291.854 193.435 312.844 190.289Z" fill="black"></path>
<path d="M305.554 198.623C315.664 197.08 325.434 197.872 335.434 197.444C356.494 196.543 378.294 202.522 357.574 225.532C351.964 228.677 342.694 230.561 336.474 231.861C332.084 224.234 313.324 209.918 305.024 199.9L305.554 198.623Z" fill="white"></path>
<path d="M219.492 293.412C224.462 292.982 243.867 291.114 244.809 297.612C243.108 300.042 242.142 300.032 239.295 300.912C232.819 300.992 217.953 301.732 212.921 298.682L213.754 295.862L212.119 297.682L212.682 298.122C214.89 294.112 213.978 295.422 219.492 293.412Z" fill="black"></path>
<path d="M349.144 264.383C354.984 263.905 361.474 262.286 365.874 266.734L365.624 268.498C360.134 272.528 356.954 271.801 350.074 271.815C344.724 271.953 339.774 274.595 335.504 270.033L336.304 268.237C340.074 265.296 344.424 265.092 349.144 264.383Z" fill="black"></path>
<path d="M352.574 250.472C357.124 250.11 363.214 248.584 365.324 253.156C361.054 258.006 352.794 257.99 346.824 258.574C342.614 258.531 339.414 258.655 336.044 256.226L336.414 254.57C342.104 250.74 345.724 251.072 352.574 250.472Z" fill="black"></path>
<path d="M107.624 286.333C124.378 282.389 134.676 291.001 146.725 300.412C137.149 302.792 111.109 311.232 111.984 324.502L113.645 324.922C125.551 320.712 136.737 305.822 151.55 308.362C158.335 309.532 167.606 326.202 165.635 331.442C162.816 338.922 136.394 339.902 133.991 350.562L135.393 351.442C140.742 351.602 160.425 343.372 168.38 340.882C168.545 352.282 169.151 359.212 166.098 370.322C160.897 370.312 147.046 369.162 144.031 373.612C148.643 377.492 158.602 377.422 164.655 377.712C160.254 385.412 157.576 388.202 150.906 393.802C140.67 404.782 106.275 411.912 91.3098 413.012C68.9858 414.442 41.6617 412.942 24.2067 397.392C1.58675 377.252 -0.237232 332.662 20.7658 310.802C27.3268 303.982 40.9817 291.349 50.5697 289.106C55.0177 288.065 66.9657 302.552 73.4967 302.232C75.3517 298.702 76.4477 295.312 80.2147 293.722C88.8847 289.774 98.1447 287.279 107.624 286.333Z" fill="white"></path>
<path d="M339.484 301.731C342.054 302.241 346.524 307.541 348.754 309.611C366.284 325.761 374.864 339.461 383.744 361.391C371.434 363.001 362.234 363.161 349.964 362.681C307.294 361.041 265.064 364.272 222.455 364.862C215.141 366.202 185.198 370.481 179.472 368.751C173.522 362.911 177.11 345.491 175.544 333.891L175.363 332.602C230.376 333.462 290.304 328.021 339.484 301.731Z" fill="white"></path>
<path d="M85.5897 204.342C112.921 203.29 119.433 258.168 123.974 278.026C118.82 277.964 113.299 278.146 108.114 278.224C102.481 279.046 96.5257 280.419 90.9297 281.602C85.8167 270.96 68.5117 222.68 70.6107 212.011C74.3337 207.627 80.1347 205.63 85.5897 204.342Z" fill="white"></path>
<path d="M34.9966 206.23C39.0336 207.986 45.1666 212.202 48.3946 213.061C51.9256 214.002 58.1046 212.193 62.7536 214.003C64.2606 224.375 65.7616 230.484 68.3096 239.82C70.1576 246.593 83.7686 280.195 83.6136 283.819L81.7196 284.72C78.0356 286.608 74.6266 288.854 71.1206 291.057C67.3206 288.657 63.5916 286.146 59.9386 283.528C31.4096 262.708 40.2176 239.233 35.2186 207.596L34.9966 206.23Z" fill="white"></path>
<path d="M142.386 211.393C154.273 211.569 178.386 209.367 184.391 221.075C188.181 228.464 184.277 238.478 176.507 242.057L167.66 242.827C158.642 233.283 143.154 221.354 132.334 213.413C134.328 211.858 139.573 211.703 142.386 211.393Z" fill="white"></path>
</svg>