<svg width="378" height="380" viewBox="0 0 378 380" fill="none" xmlns="http://www.w3.org/2000/svg">
<path d="M34.1545 123.204C42.7945 87.3415 47.1346 70.8055 72.6246 42.5595C99.3146 12.9825 121.485 9.7545 160.085 5.3395C171.115 4.0785 183.945 -0.664483 195.685 0.0785173C210.485 0.513517 227.375 2.85852 241.715 6.41952C273.675 14.0545 301.245 34.1875 318.255 62.3115C325.855 75.0395 334.135 93.4455 338.565 107.524C347.265 110.264 355.914 113.921 362.424 120.389C387.424 145.212 377.204 163.784 355.305 183.111C360.484 185.866 362.065 186.74 365.845 191.663C394.135 228.456 340.285 271.451 306.055 254.227C304.395 255.303 304.284 255.278 303.024 256.77C310.684 280.019 311.525 309.039 300.235 330.355C280.325 367.986 222.785 392.856 183.305 371.357C166.255 362.073 164.285 355.79 153.085 342.822L152.154 345.621C152.574 347.013 152.944 348.419 153.264 349.835C155.254 358.595 154.654 379.524 142.174 379.858C101.404 380.945 63.9845 372.392 68.0945 322.374C68.7445 314.535 71.5745 312.539 69.7645 303.999C59.6945 313.539 54.1946 348.685 51.6046 362.845C51.1346 365.405 49.4946 365.434 47.6246 365.585C46.2146 364.431 45.0745 364.148 45.2645 362.033C48.8045 322.309 73.4145 261.344 110.055 241.462C99.4445 236.824 94.4645 233.891 85.1745 226.944C75.7845 236.092 64.6746 239.126 51.8546 238.762C40.5446 238.439 19.2146 235.566 11.3646 226.816C-3.06543 210.746 -4.60549 176.421 11.6845 160.837C15.6145 157.077 20.2845 156.016 25.2246 154.566C15.8246 140.337 19.6045 130.65 34.1545 123.204Z" fill="black"></path>
<path d="M69.7644 303.999L69.3645 303.614C71.2145 294.22 89.4745 266.609 97.0745 259.394C119.304 238.282 125.254 246.894 151.814 250.369C157.594 251.125 176.544 251.036 183.404 251.081C185.814 254.776 187.615 257.083 188.755 261.413C179.035 265.893 171.614 270.175 164.674 278.673C154.894 290.644 142.875 320.737 149.735 335.563C150.625 337.452 151.545 339.327 152.495 341.19C153.085 342.368 152.945 341.863 153.085 342.823L152.154 345.622C152.574 347.014 152.944 348.42 153.264 349.836C155.254 358.596 154.654 379.525 142.174 379.859C101.404 380.946 63.9845 372.392 68.0945 322.374C68.7445 314.535 71.5744 312.539 69.7644 303.999Z" fill="#F3FE52"></path>
<path d="M183.405 251.081C191.765 250.854 198.465 250.577 206.855 249.726C208.455 253.327 210.965 257.511 210.395 261.111C206.475 263.243 199.215 258.683 188.755 261.413C187.615 257.083 185.815 254.776 183.405 251.081Z" fill="#F4F3EF"></path>
<path d="M168.105 72.6846C170.135 75.0026 173.295 80.8766 176.445 84.6146C193.055 104.336 225.125 114.602 250.165 116.186C251.785 122.873 254.245 129.571 255.825 136.064C258.825 148.296 260.655 159.58 264.845 171.581C251.425 190.981 249.165 202.36 248.735 225.316C233.785 209.366 218.755 203.844 205.605 226.214L205.505 241.712C190.065 243.604 176.845 243.257 161.325 242.889C121.695 243.661 71.2248 224.679 61.1348 182.508C56.9348 164.98 59.9048 131.84 69.1348 116.404C89.1948 122.252 95.3347 117.92 114.895 113.674C120.385 112.483 125.945 117.172 132.045 112.509C132.545 109.881 131.765 109.939 129.845 106.879C131.165 105.446 142.305 98.5286 145.145 96.4406C155.635 88.7136 160.125 82.3786 168.105 72.6846Z" fill="white"></path>
<path d="M103.765 124.449C124.885 121.803 135.845 126.59 144.775 147.112C146.415 150.877 146.135 154.079 146.005 158.087C152.465 160.163 161.875 161.85 168.725 163.207C169.625 160.177 170.645 156.803 171.895 153.883C188.035 116.063 263.845 142.577 242.595 181.592C239.355 187.545 234.785 190.968 228.325 192.663C206.955 196.623 174.555 193.848 168.205 171.762C168.065 171.268 147.895 166.226 145.085 165.06C142.855 172.591 142.475 173.168 137.775 179.16C123.015 185.524 108.315 185.558 93.3448 178.796C72.7248 169.476 68.9049 141.614 89.0049 129.488C93.5349 126.757 98.5948 125.74 103.765 124.449Z" fill="black"></path>
<path d="M116.724 130.076C129.024 130.235 133.994 141.603 139.454 151.448C138.784 158.209 137.844 165.772 134.994 171.921C130.814 175.07 123.274 177.443 118.174 175.57C115.394 172.459 116.674 136.59 116.724 130.076Z" fill="white"></path>
<path d="M215.755 144.234C219.975 145.424 230.255 151.534 233.295 154.936C239.985 162.439 239.145 165.287 238.655 174.462C236.495 177.868 234.305 180.319 231.725 183.388C224.775 186.517 220.015 186.131 212.535 186.044C213.355 172.001 215.615 158.51 215.755 144.234Z" fill="white"></path>
<path d="M200.375 114.813C205.705 114.731 214.474 114.702 219.324 116.446C221.554 118.926 220.894 117.864 221.194 121.812C216.434 122.713 205.504 122.858 201.414 119.63C200.314 118.762 200.515 116.305 200.375 114.813Z" fill="black"></path>
<path d="M224.285 218.079C247.055 217.281 251.135 250.975 259.705 265.366C260.525 266.746 267.255 264.799 269.075 265.263C292.925 271.357 261.345 298.653 287.605 301.39L288.665 300.305C288.365 296.497 285.485 291.973 283.605 288.4C285.855 278.815 288.085 264.286 275.595 260.553C271.605 259.36 268.435 258.677 264.475 257.131C261.655 254.044 260.685 249.459 259.365 245.32C269.795 253.335 282.695 255.053 295.445 256.069C304.855 279.326 304.635 308.021 291.965 330.162C279.885 351.295 252.545 365.554 229.565 371.23C219.645 372.777 209.505 372.329 199.755 369.912C187.985 367.028 173.025 359.763 165.835 349.055C164.785 347.479 165.555 346.531 166.155 344.159C163.455 339.236 158.145 334.675 155.525 330.214C152.595 325.211 157.125 311.21 158.525 305.844C167.215 311.511 170.975 318.656 176.125 321.465C179.625 320.957 178.375 321.779 180.365 319.635C180.115 312.962 165.955 303.224 161.025 299.776C180.345 249.024 194.285 292.069 203.785 294.87L205.825 293.108C208.195 282.71 192.765 277.946 189.315 269.972L190.545 268.367C204.625 264.216 211.275 271.744 219.745 273.407C231.295 267.884 190.905 230.473 224.285 218.079Z" fill="white"></path>
<path d="M148.035 85.8926L149.165 86.2316C147.175 90.7446 124.035 104.318 118.545 107.022C114.235 105.551 112.085 104.28 108.155 105.637C107.765 106.886 107.455 107.94 107.135 109.216L106.875 110.254C99.0249 115.437 84.5449 114.444 75.2149 114.041L72.2848 111.698C71.6448 108.58 71.4349 108.591 72.6149 105.506C78.3549 100.305 87.6749 105.267 98.3249 103.408C119.135 99.7766 129.435 92.9576 148.035 85.8926Z" fill="#F4F3EF"></path>
<path d="M145.628 203.362H140.606L142.381 204.565C142.52 205.296 142.603 205.777 142.666 206.268C142.906 208.365 143.308 210.615 144.19 212.644C145.653 214.598 146.551 216.664 148.279 217.651C151.02 219.218 155.039 222.582 162.216 220.165C166.125 218.849 168.432 217.288 169.579 215.52C170.948 213.412 172.615 207.765 171.04 204.695C170.787 204.201 170.469 203.782 165.324 203.572C160.18 203.362 150.503 203.362 145.628 203.362Z" fill="black" stroke="black" stroke-width="6" stroke-linecap="round" stroke-linejoin="round"></path>
</svg>