<svg width="496" height="429" viewBox="0 0 496 429" fill="none" xmlns="http://www.w3.org/2000/svg">
<path d="M31.624 341.104C-2.71231 308.575 5.26938 222.132 13.5523 182.977L81.321 167.164L259.78 164.905L487.935 239.451C490.947 257.523 494.26 300.895 483.417 329.81C469.864 365.953 420.166 399.838 379.505 415.65C338.843 431.463 214.6 413.391 180.716 415.65C146.831 417.909 74.5444 381.766 31.624 341.104Z" fill="white"/>
<path d="M149.063 4.32718C143.649 3.06344 132.929 5.88513 127.804 8.0183C97.3195 30.6705 76.448 43.0969 44.5027 85.0706C25.1486 110.5 8.51965 143.882 2.90033 172.235C1.77887 177.879 4.45599 185.093 3.72043 189.797C2.4422 197.879 0.356049 207.772 0.126953 215.86C-0.560394 240.452 1.36896 291.746 10.22 313.8C26.6921 354.823 66.9679 378.193 104.494 395.377C179.378 429.684 322.683 441.404 399.051 412.898L400.124 412.452C444.922 393.64 467.869 371.091 486.741 325.991C501.658 295.015 493.711 268.573 493.301 237.8C492.915 208.981 493.301 196.326 487.079 162.567C480.856 128.807 456.145 66.0228 400.124 4.32731C370.267 -10.1684 287.484 15.4296 259.701 27.1976C243.928 33.6755 235.909 34.6776 218.955 43.0969C207.379 48.844 188.832 62.5813 181.115 66.0228C175.423 60.7327 175.134 38.2433 172.433 30.6705C169.49 22.4176 168.128 22.4091 166.162 13.1601C160.012 7.9894 157.106 4.45621 149.063 4.32718ZM106.151 226.357C110.126 225.696 116.529 224.921 125.344 220.173C147.857 208.041 161.604 197.078 177.968 177.742C184.672 186.989 189.966 206.936 195.079 218.915C203.64 227.416 205.787 229.632 215.072 237.266L222.97 240.915C239.201 248.95 253.877 256.519 272.532 255.893L273.351 255.808C276.209 255.127 277.427 254.508 280.056 253.343C291.512 247.036 308.213 236.029 309.19 221.556C319.886 209.897 341.278 230.014 349.164 237.231C390.61 268.135 422.481 290.764 475.587 268.428C479.542 263.283 483.377 258.034 487.055 252.687C495.713 378.133 400.606 422.822 291.222 418.819C224.598 416.371 159.627 414.405 98.7304 382.498C107.364 382.04 111.368 382.799 117.855 377.385L117.325 375.637C112.441 373.623 102.818 373.225 97.3195 372.972C93.8346 372.815 93.4486 374.539 90.9525 377.433C74.1187 378.627 33.1073 337.748 25.1486 323.688C9.27945 295.632 4.13034 228.881 10.7746 198.395C26.2459 215.824 55.4641 227.025 78.5443 226.357C89.1197 226.052 102.176 227.018 106.151 226.357ZM285.495 263.847C277.825 266.801 275.015 268.352 267.889 272.544L261.763 275.144C241.794 285.972 235.644 294.593 241.143 317.791C243.181 326.353 244.23 331.683 250.368 338.858C258.688 348.71 269.083 348.493 280.695 351.881C302.967 358.381 324.576 366.677 348.368 365.314C364.141 364.736 378.816 353.798 388.885 342.524C391.9 339.159 393.829 315.874 392.298 310.592C390.646 304.925 386.799 302.525 383.7 297.919C372.051 280.6 350.165 269.135 330.124 264.975C321.924 263.283 312.385 264.11 304.005 263.829C296.709 263.585 292.935 262.273 285.495 263.847ZM69.7776 308.494C33.1676 288.485 52.4975 252.532 85.8156 245.997C94.7269 244.249 101.926 244.632 110.946 244.927C103.337 272.364 97.8862 294.767 103.18 322.699C88.2393 318.636 82.9939 316.525 69.7776 308.494Z" fill="black"/>
<path d="M348.502 377.94C344.74 380.099 345.415 379.014 343.63 382.366L345.029 384.898C353.784 389.529 367.832 389.698 377.937 390.313C380.674 389.046 380.264 389.022 382.519 386.792L382.411 384.199C379.01 380.895 355.978 379.351 348.502 377.94Z" fill="black"/>
<path d="M84.2846 350.676L81.7402 351.279C79.2682 354.414 79.7989 352.678 80.0521 356.621C84.0556 361.083 104.109 362.337 112.381 364.073C114.238 363.458 115.082 362.831 116.807 361.879L117.482 359.298C113.31 353.317 91.2303 351.376 84.2846 350.676Z" fill="black"/>
<path d="M206.429 379.05C203.04 379.013 204.584 378.531 201.75 380.846L201.569 383.752C205.994 389.709 226.313 393.701 233.91 395.666C236.852 395.823 235.707 395.98 238.504 394.557L239.204 391.952C236.394 387.141 213.555 381.329 206.429 379.05Z" fill="black"/>
<path d="M343.539 393.422C341.971 393.953 340.21 395.352 338.751 396.34C337.787 404.154 352.691 404.372 358.491 405.023C362.193 404.191 363.508 404.058 365.124 400.718C361.253 395.725 350.268 394.713 343.539 393.422Z" fill="black"/>
<path d="M261.759 275.145C241.79 285.973 235.64 294.594 241.139 317.792C243.177 326.354 244.226 331.684 250.364 338.859C258.684 348.711 269.079 348.494 280.691 351.882C302.963 358.382 324.573 366.678 348.364 365.315C364.137 364.737 378.812 353.799 388.881 342.525C391.896 339.16 393.825 315.875 392.294 310.593C390.642 304.926 386.795 302.526 383.696 297.92C372.047 280.601 350.161 269.136 330.12 264.976C321.92 263.284 312.381 264.111 304.001 263.83C296.705 263.586 292.931 262.274 285.491 263.848C277.821 266.802 275.012 268.353 267.885 272.545L261.759 275.145Z" fill="black"/>
<path d="M291.881 273.341C286.19 270.812 273.793 278.193 268.09 280.844C249.519 289.472 241.44 308.18 252.715 326.666C259.817 338.327 270.73 340.449 283.32 343.138C291.592 344.971 298.755 348.022 306.605 351.109C306.412 318.707 309.945 305.756 317.542 273.901C308.993 273.965 300.431 273.778 291.881 273.341Z" fill="white"/>
<path d="M132.498 238.422C130.894 237.859 117.569 235.368 114.964 234.835C113.787 234.591 110.527 234.361 107.36 234.449C104.193 234.536 96.0562 235.277 89.9184 236.262C60.6039 240.955 33.496 259.913 44.5055 293.314C49.4616 308.353 65.4032 318.205 79.8253 324.656C106.559 336.618 168.601 340.007 185.278 309.583C189.052 302.685 190.029 287.195 189.547 279.161C188.739 274.596 188.51 273.299 186.918 268.994C170.543 251.132 154.854 246.222 132.498 238.422ZM103.183 322.702C88.2422 318.639 82.9968 316.528 69.7805 308.497C33.1705 288.488 52.5004 252.536 85.8184 246C94.7298 244.253 101.929 244.635 110.949 244.93C103.34 272.367 97.8892 294.77 103.183 322.702Z" fill="black"/>
<path d="M110.944 244.927C101.925 244.631 94.7255 244.249 85.8141 245.996C52.4961 252.532 33.1662 288.485 69.7762 308.494C82.9925 316.525 88.2379 318.635 103.179 322.699C97.8848 294.766 103.335 272.364 110.944 244.927Z" fill="white"/>
</svg>
