<svg width="459" height="463" viewBox="0 0 459 463" fill="none" xmlns="http://www.w3.org/2000/svg">
<path d="M270 425.5L318 350.5H321.5L354.5 358C353.667 372.167 349.9 403.3 341.5 414.5C331 428.5 300 441.5 294.5 441.5C290.1 441.5 276.333 430.833 270 425.5Z" fill="white"></path>
<path d="M41.5 310.5C8.70004 287.3 -1.5 226.5 9.00004 200.5L251.5 130.5L408 152V193.5L296 334C264.5 337.5 195.3 345.3 170.5 348.5C139.5 352.5 82.5 339.5 41.5 310.5Z" fill="white"></path>
<path d="M287.513 0.191027C293.013 -0.621973 301.093 1.29203 306.183 3.43903C337.133 16.478 371.763 39.496 386.843 70.455C397.373 92.099 404.673 116.82 409.333 140.346C409.903 143.199 407.773 150.606 408.523 155.26C409.533 161.519 412.293 169.397 411.923 175.489C411.663 179.625 407.813 179.251 406.703 182.484C415.863 189.288 415.013 182.333 429.423 195.993C449.083 214.635 457.373 235.332 458.143 262.424C458.693 281.636 445.143 317.879 430.893 330.879C418.583 342.111 390.503 356.446 373.453 359.17C368.873 359.901 361.913 359.76 357.093 359.67C358.113 391 349.013 417.537 321.493 435.78C310.153 443.297 301.893 444.25 288.653 441.373C273.423 477.273 239.893 461.831 242.313 436.924C244.933 410.08 277.543 359.554 297.423 340.75C294.393 338.126 293.893 335.527 290.423 334.791L288.113 337.792C287.803 337.969 273.893 341.47 272.743 341.706C222.523 351.972 146.553 357.193 96.8727 344.286C65.0727 336.022 32.7427 315.984 17.6727 286.697C5.56271 263.163 -1.25727 246.804 0.192731 219.265C0.562731 212.317 2.75267 198.405 2.38267 192.333C1.44267 176.791 -2.78726 159.103 3.32274 143.15C20.7327 97.672 58.9027 32.222 101.253 7.07402C128.143 -8.89198 169.143 7.67702 193.943 18.233C207.363 23.944 216.433 24.669 230.353 32.449C236.933 36.126 257.073 49.442 261.703 50.88C264.923 44.902 267.053 27.605 269.343 20.393C270.933 15.391 272.053 14.161 273.363 8.64502L273.623 7.54102C278.723 3.31202 281.083 0.306027 287.513 0.191027ZM179.683 207.096C174.613 202.959 167.903 200.936 161.503 194.027C154.123 186.064 155.283 168.356 152.673 164.326C150.773 164.915 136.383 179.789 135.233 181.845C128.183 185.073 116.793 198.938 109.303 201.867C104.563 206.153 87.7127 215.875 85.9927 217.891C80.2127 221.816 64.5727 224.401 56.9527 225.864C43.5227 228.44 29.5328 224.325 17.2128 219.478C13.8728 215.029 10.5327 210.716 7.54271 206.022C6.16271 232.195 6.26267 249.042 18.3827 273.229C32.3627 301.146 44.9627 313.812 72.8127 327.16C85.2927 334.953 104.183 338.556 118.533 341.4C121.723 342.046 124.293 342.593 127.533 342.935L128.613 342.831C134.743 343.913 138.093 343.791 144.363 343.748L157.143 343.939C178.933 344.977 212.783 343.822 233.803 340.968L241.633 340.12L259.643 337.153C264.513 333.571 281.913 331.877 289.083 330.875C282.973 320.98 279.523 315.644 274.543 305.085C273.263 299.93 272.283 295.147 271.253 289.938C269.663 279.77 270.613 260.9 271.483 250.394C272.813 247.959 274.563 234.721 276.263 231.41C288.333 207.941 303.793 191.879 327.503 182.3C324.603 182.085 321.713 181.802 318.833 181.452C299.163 178.95 275.613 158.402 263.743 143.148C253.333 161.491 253.493 181.204 232.383 192.922C215.803 202.13 198.773 211.382 179.683 207.096ZM391.393 176.939L404.913 181.588C404.783 176.029 405.293 165.65 401.683 161.521C395.143 168.828 390.483 170.763 381.923 175.561C385.073 176.054 388.233 176.514 391.393 176.939ZM336.723 412.773C344.023 402.283 356.363 375.127 350.433 363.252C345.343 359.213 317.163 350.646 313.703 355.56C318.663 360.76 325.013 360.911 329.193 365.925C330.153 369.455 330.423 368.403 329.303 371.242C324.673 372.659 317.583 367.069 311.503 364.557C306.813 374.717 304.233 382.378 300.633 393.009C300.453 396.606 300.193 396.841 298.513 400.143C294.073 408.471 291.233 423.759 286.763 432.973C293.073 437.029 299.433 436.434 306.863 436.514C313.123 432.926 318.033 430.363 323.513 425.564C330.183 421.652 331.823 418.772 336.723 412.773Z" fill="black"></path>
<path d="M279.403 290.168C274.913 270.229 278.193 241.62 288.703 223.968C324.653 163.586 434.062 168.296 448.862 243.396C449.532 245.835 450.653 249.154 450.543 251.549C453.093 267.47 441.103 305.022 430.893 317.956C422.953 328.007 417.083 332.374 405.573 337.647C400.793 340.104 396.033 342.618 391.313 345.19C367.533 356.05 343.062 352.489 318.862 344.219C298.542 337.275 289.173 317.854 280.623 299.171L279.403 290.168Z" fill="#F3FE51"></path>
<path d="M388.163 327.111C367.643 339.188 349.313 333.434 329.903 323.897C265.833 292.798 306.843 203.8 368.803 208.767C401.523 211.391 424.683 214.415 433.283 250.29L434.293 252.384C432.893 259.636 434.493 264.43 434.173 271.385C433.303 290.13 420.383 306.092 405.773 316.77C401.853 319.637 397.653 322.11 393.253 324.154L388.163 327.111Z" fill="black"></path>
<path d="M330.083 227.85C346.423 207.541 395.173 216.091 413.673 230.157C429.193 241.964 412.503 285.439 402.653 296.481C394.403 294.023 351.093 291.764 348.223 298.788C352.553 307.009 358.673 302.581 366.373 302.614C376.993 302.659 387.613 303.483 398.203 303.459C395.483 307.295 392.053 312.469 389.003 315.824C379.013 315.818 364.883 315.068 355.783 318.485L354.303 320.25L354.633 323.611L352.993 325.496C325.693 315.687 317.603 309.84 304.853 285.638C307.063 285.783 309.273 285.858 311.483 285.864C318.863 285.837 328.593 284.581 336.733 284.244C357.313 283.246 380.803 284.307 397.023 269.429C402.863 264.076 401.893 251.599 396.183 248.135C376.093 235.95 342.173 244.754 320.093 247.298L310.253 249.463C315.873 241.807 321.843 232.424 330.083 227.85Z" fill="white"></path>
<path d="M310.252 249.463C315.872 241.807 321.843 232.424 330.083 227.85C327.873 231.731 320.103 243.671 320.093 247.298L310.252 249.463Z" fill="#F3FE51"></path>
<path d="M331.133 253.147L332.603 253.473C331.403 261.526 330.833 268.04 332.003 276.092C323.483 276.961 316.653 277.69 308.033 277.719L306.523 277.859L305.183 276.729C304.183 270.011 306.083 263.552 307.783 257.073C316.233 254.78 322.573 254.106 331.133 253.147Z" fill="#F4F3EF"></path>
<path d="M425.763 260.518C427.543 279.783 420.523 294.754 405.223 306.618C405.583 305.192 409.243 299.158 410.223 297.146C416.543 284.129 422.593 274.722 425.763 260.518Z" fill="#F3FE51"></path>
<path d="M354.633 323.611C357.833 323.867 370.623 323.969 371.863 324.502C367.443 326.567 357.973 326.024 352.993 325.496L354.633 323.611Z" fill="#C3C2BB"></path>
<path d="M140.472 227.14C149.382 226.717 155.312 226.854 164.122 228.801C182.152 227.141 192.652 238.662 196.892 255.128C196.372 264.648 195.872 268.319 191.662 276.808C186.502 282.844 180.102 291.118 172.782 294.326C170.892 295.266 168.163 296.386 166.713 297.721C161.903 298.159 158.732 298.348 154.002 299.594L141.072 299.893H130.772C121.602 299.769 112.332 299.478 103.192 300.064C87.5325 298.011 81.6925 292.912 74.5925 279.282C74.3925 263.96 75.5925 251.334 87.9225 241.045C102.602 231.291 110.152 230.017 127.232 226.698C129.692 226.813 132.522 227.043 134.942 226.879L140.472 227.14ZM81.9425 279.127C88.8125 286.997 89.6225 289.085 99.7825 291.764C106.982 291.845 130.542 292.678 136.412 290.87C137.062 288.631 136.952 290.09 136.612 288.762C133.352 276.121 137.552 246.621 131.262 235.484C128.502 234.395 127.652 234.7 124.732 235C95.7624 240.396 81.0025 246.356 81.9425 279.127Z" fill="black" fill-opacity="0.980392"></path>
<path d="M124.733 235C127.653 234.7 128.503 234.395 131.263 235.484C137.553 246.621 133.353 276.121 136.613 288.762C136.953 290.09 137.063 288.631 136.413 290.87C130.543 292.678 106.983 291.845 99.7826 291.764C89.6226 289.085 88.8126 286.997 81.9426 279.127C81.0026 246.356 95.7626 240.396 124.733 235Z" fill="white" fill-opacity="0.831373"></path>
<path d="M301.583 345.437C304.273 346.166 306.762 347.257 308.012 349.716C290.672 364.027 276.573 382.31 271.413 404.498C267.833 419.898 266.793 431.004 282.423 439.285C277.743 447.969 276.023 451.254 267.463 456.223C235.773 449.707 251.522 423.489 260.882 404.483C271.302 383.3 285.013 362.38 301.583 345.437Z" fill="#F3FE51"></path>
<path d="M283.073 390.536C289.143 393.746 292.833 396.228 298.513 400.143C294.073 408.471 291.233 423.759 286.763 432.973C268.153 427.256 278.733 403.887 283.073 390.536Z" fill="#F3FE51"></path>
<path d="M285.933 384.436C290.853 378.067 297.643 365.577 304.733 362.318C306.923 361.312 308.963 363.187 311.503 364.557C306.813 374.717 304.233 382.378 300.633 393.009C296.543 389.843 290.603 386.926 285.933 384.436Z" fill="#F3FE51"></path>
<path d="M118.043 310.74C122.273 310.314 123.713 310.073 127.303 312.737C123.843 318.001 123.373 317.633 116.873 318.404C109.833 319.595 104.113 319.589 97.7527 320.54C95.2727 318.664 94.6428 318.038 94.3428 315.158C98.1328 311.619 109.723 312.436 116.943 310.974L118.043 310.74Z" fill="black" fill-opacity="0.87451"></path>
<path d="M243.223 310.099C244.353 314.562 244.673 313.179 243.313 316.919C236.503 318.984 229.403 321.267 222.553 323.059L217.373 324.309C213.843 323.135 214.863 324.231 213.533 321.611C215.753 318.379 215.013 319.398 219.373 317.73C226.563 316.047 236.043 312.532 243.223 310.099Z" fill="black" fill-opacity="0.886275"></path>
<path d="M124.303 323.42C128.283 323.493 127.093 322.904 129.823 325.02C130.323 327.387 130.513 327.849 130.453 330.319C127.293 330.61 124.193 330.719 121.173 331.697L117.193 331.923C112.913 332.422 111.513 332.743 108.883 329.203L109.443 327.375C113.463 324.797 119.403 324.286 124.303 323.42Z" fill="black" fill-opacity="0.862745"></path>
</svg>