<svg width="487" height="550" viewBox="0 0 487 550" fill="none" xmlns="http://www.w3.org/2000/svg">
<path d="M223.793 85.6342C235.807 71.9772 249.566 63.8722 264.561 54.0202C307.042 26.1102 353.699 3.36417 405.14 0.230173C438.618 -1.80983 448.023 9.61419 462.553 38.3452C473.64 60.2682 480.986 82.1752 482.137 107.131C482.68 122.069 484.498 136.091 486.157 150.885C488.878 218.337 482.296 284.745 436.236 337.948C425.393 350.473 407.252 356.569 400.374 363.76C400.833 365.8 401.415 366.352 402.586 368.09C402.863 391.756 348.482 464.891 329.353 484.559C305.971 508.6 259.923 546.857 224.263 549.827C195.235 548.858 144.365 546.815 143.823 507.14C143.713 499.086 148.37 483.216 146.026 476.941C142.275 466.905 139.604 465.416 137.944 453.643C138.229 451.326 138.577 449.018 138.989 446.72C140.379 439.363 143.275 436.544 149.046 432.585C152.028 432.103 160.143 431.821 163.679 431.562C173 430.879 186 418.5 192.5 410.5C199 402.5 228.5 381.5 235 375.5C244 370 222 370.5 219 370.5C216 370.5 199.5 368.5 190.5 367.5C181.5 366.5 158.711 358.855 162 360.5C162 360.5 165.5 371 165 373.5C164.5 376 158.259 385.5 149.829 389.095C144.743 391.264 141.568 391.601 137.898 393.091L126.855 411.989C121.77 417.468 119.648 419.341 113.699 423.922C87.2108 441.1 77.2578 452.36 42.4158 444.461C26.6348 440.883 15.8068 437.131 6.32576 423.018C-10.0412 398.655 8.40576 370.624 27.0148 353.93C33.1498 348.427 41.2728 342.961 45.2028 335.258C52.1338 319.255 41.6898 313.272 56.4698 298.064C35.9168 260.908 40.4478 226.601 47.6388 186.198C49.9858 173.01 50.2658 158.821 54.3108 145.874C73.9178 87.9122 127.023 41.1242 176.035 7.01518C184.844 0.884177 211.524 -5.01381 217.944 9.3152C223.88 31.5802 223.296 62.1422 223.793 85.6342Z" fill="black"></path>
<path d="M56.8048 164.372C98.0068 179.708 134.704 137.669 139.831 137.799C145.976 152.989 146.33 156.149 161.941 162.677C200.636 178.857 219.936 164.602 249.673 143.714C254.21 150.994 265.024 158.073 271.766 163.129C287.231 174.726 309.576 174.315 327.205 168.687C331.212 167.408 342.647 164.965 345.375 163.884C348.855 162.042 351.6 160.729 354.77 158.341L370.254 146.345C372.177 150.67 376.528 161.138 379.154 164.427C386.752 173.947 404.296 183.276 415.436 187.289C433.811 193.908 463.083 195.342 479.059 182.596C478.973 246.073 460.84 321.385 401.172 353.136C392.749 357.618 385.483 364.137 375.815 365.96C347.534 372.831 318.386 368.869 289.762 367.032C245.449 364.189 194.905 362.732 152.302 349.606L144.827 342.972C146.036 339.702 148.588 333.94 146.708 330.869C135.987 313.356 110.801 295.895 92.2658 288.75C82.6038 285.026 70.5778 288.81 62.5158 292.682L61.5488 293.157C38.9608 251.446 49.9628 210.107 56.8048 164.372Z" fill="white"></path>
<path d="M352.598 166.837C352.862 164.781 352.916 164.923 354.211 163.268C358.309 162.098 366.661 162.26 371.868 161.793C373.532 165.209 373.522 163.957 372.934 167.196C369.147 170.759 355.639 170.106 352.598 166.837Z" fill="black"></path>
<path d="M314.825 186.111C317.62 186.805 337.209 185.531 341.832 185.385C356.102 184.936 378.976 191.062 388.606 201.556C422.452 238.438 384.59 287.756 340.016 287.345C319.477 287.214 290.661 288.86 272.123 277.393C248.513 263.521 242.482 225.965 263.205 207.204C274.613 196.876 299.757 188.449 314.825 186.111Z" fill="black"></path>
<path d="M324.707 194.094C325.834 194 326.686 194.249 327.849 194.434C328.076 200.482 323.382 209.338 323.236 218.717C322.913 239.578 321.304 257.647 322.742 278.642C310.242 279.039 289.561 278.212 278.873 271.829C259.808 258.953 249.943 237.641 265.935 215.538C273.496 205.089 297.371 197.706 309.317 195.143C311.902 194.588 321.161 194.406 324.707 194.094Z" fill="white"></path>
<path d="M105.033 186.12C119.316 181.665 170.777 191.578 184.563 198.229C198.874 217.161 191.939 247.57 180.637 266.267C173.479 278.109 157.053 278.981 144.666 281.112C149.04 288.505 154.787 295.454 146.356 301.065C144.329 299.019 142.642 294.622 141.259 291.884C123.392 256.496 101.535 250.284 66.4049 264.426L64.9399 263.26C64.0419 258.018 69.8959 256.28 68.7379 254.113C58.6779 235.287 58.9949 219.141 72.8679 201.883C81.4199 191.244 90.4019 187.441 105.033 186.12Z" fill="black"></path>
<path d="M102.457 194.135C107.623 193.466 118.601 193.844 124.217 193.881C118.773 213.536 114.581 233.656 116.102 254.198C105.915 249.084 104.52 248.582 93.1788 248.877C89.7798 249.768 80.7888 250.991 76.0708 252.048L68.5288 234.854C70.8888 212.168 78.9608 198.487 102.457 194.135Z" fill="white"></path>
<path d="M420.619 295.153C425.657 294.155 428.637 294.901 431.814 298.945L431.228 300.658C426.47 304.158 412.256 303.564 404.985 304.397C400.831 304.644 395.452 304.918 393.972 300.354C398.576 296.059 414.105 295.676 420.619 295.153Z" fill="black"></path>
<path d="M259.098 316.352C261.143 316.286 261.236 317.064 263.335 318.828C264.116 326.971 238.603 324.402 233.014 324.14C229.182 323.022 230.218 323.942 228.562 321.044L229.25 319.098C234.919 315.778 250.946 316.927 259.098 316.352Z" fill="black"></path>
<path d="M399.571 315.135C406.874 314.787 424.813 312.503 429.284 317.879C428.764 321.11 429.07 319.998 426.617 322.772C419.458 322.831 400.728 324.224 396.484 319.051C397.243 316 396.497 317.42 399.571 315.135Z" fill="black"></path>
<path d="M135.99 161.82C137.996 162.365 138.56 163.056 140.318 164.298C139.609 171.178 126.806 171.344 121.163 171.656C118.29 170.992 115.667 170.629 115.256 167.339C117.744 164.014 130.411 163.004 135.99 161.82Z" fill="black"></path>
<path d="M395.242 366.742L396.149 367.652C394.612 373.668 390.344 384.615 387.416 390.084C353.435 453.54 299.117 517.019 231.823 541.692C235.883 534.286 241.668 525.585 241.266 517.197L240.059 516.398C234.164 519.69 227.468 535.301 225.667 541.76C213.544 541.983 201.371 540.993 189.315 539.75C192.688 532.703 201.924 519.834 201.407 514.831L199.831 513.627C190.905 515.454 187.989 534.947 181.222 537.526C166.777 533.654 161.467 530.982 152.997 518.568C157.653 514.043 170.75 500.616 169.313 493.733L167.407 493.682C160.337 498.456 156.911 504.146 151.612 510.958C151.438 504.503 151.324 500.23 152.755 494.048C153.701 489.962 154.796 482.809 154.12 478.858C152.314 468.293 143.884 462.698 144.965 450.903C146.353 435.766 159.825 440.378 170.455 437.693C175.635 436.377 187.822 425.079 191.973 421.376C204.741 409.962 217.757 398.804 231.18 388.169C238.125 382.667 246.402 379.043 253.022 373.126C265.09 374.408 276.881 374.462 288.999 375.157C323.746 377.148 363.341 383.586 395.242 366.742Z" fill="white"></path>
<path d="M76.7819 294.686C81.4039 294.076 88.7509 293.681 92.2819 296.929C90.9879 304.314 79.3269 307.488 83.5309 317.348L85.2209 317.671C89.7909 314.732 95.7329 304.93 98.6629 300.189C105.151 303.563 114.835 308.103 119.361 313.531C119.451 318.356 110.338 317.834 110.886 324.092C113.398 326.211 112.008 325.707 115.103 325.883C127.541 317.319 130.615 322.642 140.271 332.985L136.78 344.606C154.635 364.93 167.758 373.579 133.654 385.661C134.073 385.513 121.492 405.72 119.802 407.826C116.804 411.564 114.51 413.754 110.285 416.946C99.7019 423.411 89.7129 434.086 76.7749 437.239C47.6489 444.337 -3.33614 430.92 9.28586 390.783C15.3049 371.644 32.9639 358.561 46.6899 345.334C49.0539 343.056 52.8529 336.577 54.7529 333.522C52.4559 312.921 53.9789 300.766 76.7819 294.686Z" fill="white"></path>
</svg>