<svg width="412" height="353" viewBox="0 0 412 353" fill="none" xmlns="http://www.w3.org/2000/svg">
<path d="M286.12 0.31221C303.03 -2.63179 331.099 15.9882 345.059 24.9072C385.679 50.8502 399.44 94.1462 408.89 138.743C410.04 144.194 407.36 150.306 408.66 155.796C413.16 177.749 411.44 200.195 409.41 222.315C408.41 232.643 406.939 246.225 403.079 255.989C390.65 287.428 362.009 307.224 332.559 320.786C309.159 331.558 288.03 338.249 263.079 343.887C227.18 350.646 161.7 354.745 125.35 350.101C110.41 348.214 95.7295 344.655 81.5895 339.493C40.8655 322.909 18.5805 299.769 4.47653 257.859C-3.44647 234.317 1.44252 216.479 2.01352 193.134C1.15252 177.931 -1.89048 161.275 2.25552 146.394C7.77752 126.385 18.9665 107.752 29.2355 89.5202C46.0295 59.7032 78.2395 13.7082 111.929 2.81221C143.629 -7.44179 180.48 15.2242 209.76 23.8932C230.6 30.0612 242.839 41.2892 260.689 51.2622L262 50.8302C265.91 42.6672 266.08 29.1812 268.5 20.9802C270.29 14.9542 271.649 16.3542 273.439 7.55121C278.329 3.50121 280.33 0.85421 286.12 0.31221Z" fill="black"></path>
<path d="M263.67 144.402C288.3 172.766 310.84 186.086 348.56 184.283C368.21 183.343 389.15 175.886 402.33 161.196C407.23 183.461 402.95 206.118 401.45 228.735C399.07 264.269 374.14 291.768 343.16 306.951C342.77 307.144 336.95 309.353 336.9 309.336C329.48 306.963 318.83 301.458 313.59 309.918L314.1 311.558C317.84 313.436 325.13 313.474 329.61 313.779C325.71 315.941 321.36 317.821 317.14 319.547C268.73 339.376 217.13 344.769 165.19 343.897C151.66 343.67 138.99 344.287 125.87 342.668C73.3097 335.743 30.8507 312.248 12.6567 260.581C5.78766 241.074 6.12263 226.223 7.41063 206.172C10.5446 210.786 13.6407 214.956 16.9867 219.417C68.4997 240.306 101.92 210.523 138.86 178.047C143.03 174.384 148.54 165.663 152.48 164.394C153.66 165.817 153.94 174.312 154.34 177.144C157.15 197.371 179.2 212.923 199.29 207.39C219.68 201.776 244.63 190.96 252.92 169.515C256.03 161.461 258.76 151.494 263.67 144.402Z" fill="white"></path>
<path d="M198.47 254.193C218.81 249.864 219.46 275.81 208.6 281.382C181.39 295.332 133.53 295.568 103.78 293.394C95.5997 292.038 84.2997 289.877 82.8997 280.129C82.4797 277.237 83.1796 271.418 85.5396 269.381C103.18 254.122 133.26 260.242 154.95 257.964C171.79 256.838 182.47 256.226 198.47 254.193Z" fill="black"></path>
<path d="M119.76 265.117C141.53 264.73 139.92 264.15 142.92 285.584C132.23 286.718 124.86 287.329 114.2 286.236C107.66 285.563 89.0196 285.385 89.6396 275.875C96.0096 267.816 110.19 267.142 119.76 265.117Z" fill="white"></path>
<path d="M336.88 233.169C345.19 235.114 353.319 228.87 361.689 236.783C367.669 242.427 368.57 252.193 362 257.354C341.17 273.704 312.52 276.939 286.85 276.707C266.92 276.744 249.14 272.329 257.59 248.413C259.9 241.862 328.58 233.948 336.88 233.169Z" fill="black"></path>
<path d="M284.56 248.12L288.2 247.457C294.81 250.398 290.37 259.489 293.26 265.092C294.2 266.916 293.98 266.057 294.76 268.378C291.04 269.357 279.3 268.988 274.85 268.977C266.9 268.82 261.16 261.912 263.12 254.48C267.57 249.367 277.17 249.237 284.56 248.12Z" fill="white"></path>
<path d="M122.3 310.004C125.42 311.789 124.86 310.893 126.33 313.667L125.18 315.763C117.92 319.601 106.26 319.745 97.8997 320.246C95.6197 319.208 95.9596 319.177 94.0896 317.334L94.1796 315.193C96.9996 312.457 116.11 311.169 122.3 310.004Z" fill="black"></path>
<path d="M341.41 287.382L343.52 287.88C345.58 290.485 345.14 289.048 344.93 292.317C341.61 296.024 324.98 297.067 318.11 298.503C316.57 297.996 315.87 297.478 314.44 296.681L313.87 294.541C317.34 289.56 335.64 287.963 341.41 287.382Z" fill="black"></path>
<path d="M240.12 310.914L242.49 310.992C244.58 312.952 243.97 311.753 244.15 314.823C240.47 319.758 223.629 323.069 217.329 324.694C214.889 324.827 215.84 324.95 213.52 323.779L212.939 321.623C215.279 317.626 234.21 312.811 240.12 310.914Z" fill="black"></path>
<path d="M126.45 322.834C127.72 323.283 129.18 324.45 130.35 325.26C131.29 331.73 118.78 331.913 114.02 332.442C110.95 331.756 109.86 331.647 108.53 328.889C111.73 324.762 120.89 323.904 126.45 322.834Z" fill="black"></path>
</svg>